<?xml version="1.0" encoding="utf-8"?>
<?xml-stylesheet type="text/xsl" href="rss1.xsl"?>
<rss version="2.0" xmlns:atom="http://www.w3.org/2005/Atom" xmlns:content="http://purl.org/rss/1.0/modules/content/" xmlns:dc="http://purl.org/dc/elements/1.1/" xmlns:media="http://search.yahoo.com/mrss/">
<channel>
 <title>Getty</title>
 <link>http://www.gettyimg.com/</link>
 <atom:link href="http://www.gettyimg.com/" rel="self" type="application/rss+xml" />

 
                <item>
                <title><![CDATA[【Music Videos】NSYNC - Here We Go (5.1) (Clean)]]></title>
                <link><![CDATA[https://sharemania.us/threads/nsync-here-we-go-5-1-clean.236157/]]></link>
                <description><![CDATA[<article>
<blockquote class="messageText SelectQuoteContainer ugc baseHtml">
<img src="https://i.ibb.co/vQCQg08/04-N-Sync-Here-We-Go-5-1-VOB-thumbs-2024-01-20-22-37-53.jpg" class="bbCodeImage LbImage" alt="[​IMG]" data-url="https://i.ibb.co/vQCQg08/04-N-Sync-Here-We-Go-5-1-VOB-thumbs-2024-01-20-22-37-53.jpg" style=""> <br>
<br>
<div class="ToggleTriggerAnchor bbCodeSpoilerContainer">
<button type="button" class="button bbCodeSpoilerButton ToggleTrigger Tooltip JsOnly" data-target="> .SpoilerTarget"><span>Spoiler: <span class="SpoilerTitle">MediaInfo</span></span></button>
<div class="SpoilerTarget bbCodeSpoilerText">'N Sync-Here We Go (5.1).VOB<br>
Format : MPEG-PS<br>
File size : 198 MiB<br>
Duration : 3 min 34 s<br>
Overall bit rate mode : Variable<br>
Overall bit rate : 7 749 kb/s<br>
Frame rate : 29.970 FPS<br>
<br>
Video<br>
ID : 224 (0xE0)<br>
Format : MPEG Video<br>
Format version : Version 2<br>
Format profile : Main@Main<br>
Format settings : CustomMatrix / BVOP<br>
Format settings, BVOP : Yes<br>
Format settings, Matrix : Custom<br>
Format settings, GOP : M=3, N=15<br>
Format settings, picture st : Frame<br>
Duration : 3 min 34 s<br>
Bit rate mode : Variable<br>
Bit rate : 7 147 kb/s<br>
Width : 720 pixels<br>
Height : 480 pixels<br>
Display aspect ratio : 4:3<br>
Frame rate : 29.970 (30000/1001) FPS<br>
Standard : NTSC<br>
Color space : YUV<br>
Chroma subsampling : 4:2:0<br>
Bit depth : 8 bits<br>
Scan type : Interlaced<br>
Scan order : Top Field First<br>
Compression mode : Lossy<br>
Bits/(Pixel*Frame) : 0.690<br>
Time code of first frame : 01:06:56;06<br>
Time code source : Group of pictures header<br>
GOP, Open/Closed : Open<br>
Stream size : 183 MiB (92%)<br>
<br>
Audio<br>
ID : 189 (0xBD)-128 (0x80)<br>
Format : AC-3<br>
Format/Info : Audio Coding 3<br>
Commercial name : Dolby Digital<br>
Muxing mode : DVD-Video<br>
Duration : 3 min 34 s<br>
Bit rate mode : Constant<br>
Bit rate : 448 kb/s<br>
Channel(s) : 6 channels<br>
Channel layout : L R C LFE Ls Rs<br>
Sampling rate : 48.0 kHz<br>
Frame rate : 31.250 FPS (1536 SPF)<br>
Compression mode : Lossy<br>
Delay relative to video : -259 ms<br>
Stream size : 11.5 MiB (6%)<br>
Service kind : Complete Main<br>
<br>
Text<br>
ID : 189 (0xBD)-32 (0x20)<br>
Format : RLE<br>
Format/Info : Run-length encoding<br>
Muxing mode : DVD-Video<br>
Delay relative to video : -66 ms</div>
</div><br>
<div class="bbCodeBlock bbCodeVfcHH HiddenContent">
<div class="attribution type">Hidden Content:</div>
<blockquote>You must reply before you can see the hidden data contained here.</blockquote>
</div>
<div class="messageTextEndMarker">&nbsp;</div>
</blockquote>
</article>]]></description>
                <author><![CDATA[DJ-RoGeRs-BS]]></author>
                </item>

                
                <item>
                <title><![CDATA[【Requests】[REQ AUD] - Dance Not Bom (flac in Qobuz))]]></title>
                <link><![CDATA[https://sharemania.us/threads/dance-not-bom-flac-in-qobuz.236156/]]></link>
                <description><![CDATA[<article>
<blockquote class="messageText SelectQuoteContainer ugc baseHtml">
Dance Not Bom - Track No. 1<br>
<a href="https://www.qobuz.com/ie-en/album/dance-not-bomb-don-lego/jekjna1xuq4hb" target="_blank" class="externalLink" rel="nofollow">https://www.qobuz.com/ie-en/album/dance-not-bomb-don-lego/jekjna1xuq4hb</a><br>
<br>
Ngaca<br>
<a href="https://tidal.com/browse/album/320858297" target="_blank" class="externalLink" rel="nofollow">https://tidal.com/browse/album/320858297</a><br>
<br>
Daek Heug teu Kajeun<br>
<a href="https://www.qobuz.com/ie-en/album/daek-heug-teu-kajeun-lain-udin-and-friends/j48m0tzp235ca" target="_blank" class="externalLink" rel="nofollow">https://www.qobuz.com/ie-en/album/daek-heug-teu-kajeun-lain-udin-and-friends/j48m0tzp235ca</a><br>
<br>
Kuduna Urang<br>
<a href="https://www.qobuz.com/ie-en/album/kuduna-urang-lain-udin-and-friends/my7dm5oj5elsc" target="_blank" class="externalLink" rel="nofollow">https://www.qobuz.com/ie-en/album/kuduna-urang-lain-udin-and-friends/my7dm5oj5elsc</a><br>
<br>
Duduk Sama Rata<br>
<a href="https://www.qobuz.com/ie-en/album/duduk-sama-rata-berdiri-tanpa-raja-arul-and-asep-balon/e3rrn8yai7hdc" target="_blank" class="externalLink" rel="nofollow">https://www.qobuz.com/ie-en/album/d...-tanpa-raja-arul-and-asep-balon/e3rrn8yai7hdc</a><br>
<br>
Si Eta<br>
<a href="https://www.qobuz.com/ie-en/album/si-eta-sar-asep-balon/veuv4rz2jxdha" target="_blank" class="externalLink" rel="nofollow">https://www.qobuz.com/ie-en/album/si-eta-sar-asep-balon/veuv4rz2jxdha</a>
<div class="messageTextEndMarker">&nbsp;</div>
</blockquote>
</article>]]></description>
                <author><![CDATA[Sutia]]></author>
                </item>

                
                <item>
                <title><![CDATA[【Music Videos】NSYNC - Tearin Up My Heart (1080p 5.1) (Clean)]]></title>
                <link><![CDATA[https://sharemania.us/threads/nsync-tearin-up-my-heart-1080p-5-1-clean.236155/]]></link>
                <description><![CDATA[<article>
<blockquote class="messageText SelectQuoteContainer ugc baseHtml">
<img src="https://i.ibb.co/MfShDfW/03-N-Sync-Tearin-Up-My-Heart-5-1-mp4-thumbs-2024-01-20-13-22-13.jpg" class="bbCodeImage LbImage" alt="[​IMG]" data-url="https://i.ibb.co/MfShDfW/03-N-Sync-Tearin-Up-My-Heart-5-1-mp4-thumbs-2024-01-20-13-22-13.jpg" style=""> <br>
<br>
<div class="ToggleTriggerAnchor bbCodeSpoilerContainer">
<button type="button" class="button bbCodeSpoilerButton ToggleTrigger Tooltip JsOnly" data-target="> .SpoilerTarget"><span>Spoiler: <span class="SpoilerTitle">MediaInfo</span></span></button>
<div class="SpoilerTarget bbCodeSpoilerText">'N Sync-Tearin Up My Heart (5.1).mp4<br>
Format : MPEG-4<br>
Format profile : Base Media / Version 2<br>
Codec ID : mp42 (mp42/mp41)<br>
File size : 257 MiB<br>
Duration : 3 min 29 s<br>
Overall bit rate mode : Variable<br>
Overall bit rate : 10.3 Mb/s<br>
Frame rate : 30.000 FPS<br>
Encoded date : 2024-01-20 05:07:28 UTC<br>
Tagged date : 2024-01-20 05:07:56 UTC<br>
TIM : 00:00:00:00<br>
TSC : 30<br>
TSZ : 1<br>
<br>
Video<br>
ID : 1<br>
Format : AVC<br>
Format/Info : Advanced Video Codec<br>
Format profile : Main@L4.1<br>
Format settings : CABAC / 4 Ref Frames<br>
Format settings, CABAC : Yes<br>
Format settings, Reference : 4 frames<br>
Codec ID : avc1<br>
Codec ID/Info : Advanced Video Coding<br>
Duration : 3 min 29 s<br>
Bit rate : 9 996 kb/s<br>
Width : 1 920 pixels<br>
Height : 1 080 pixels<br>
Display aspect ratio : 16:9<br>
Frame rate mode : Constant<br>
Frame rate : 30.000 FPS<br>
Color space : YUV<br>
Chroma subsampling : 4:2:0<br>
Bit depth : 8 bits<br>
Scan type : Progressive<br>
Bits/(Pixel*Frame) : 0.161<br>
Stream size : 249 MiB (97%)<br>
Language : English<br>
Encoded date : 2024-01-20 05:07:28 UTC<br>
Tagged date : 2024-01-20 05:07:28 UTC<br>
Color range : Limited<br>
Color primaries : BT.709<br>
Transfer characteristics : BT.709<br>
Matrix coefficients : BT.709<br>
Codec configuration box : avcC<br>
<br>
Audio<br>
ID : 2<br>
Format : AAC LC<br>
Format/Info : Advanced Audio Codec Low Complexity<br>
Codec ID : mp4a-40-2<br>
Duration : 3 min 29 s<br>
Source duration : 3 min 29 s<br>
Bit rate mode : Variable<br>
Bit rate : 317 kb/s<br>
Maximum bit rate : 1 219 kb/s<br>
Channel(s) : 6 channels<br>
Channel layout : C L R Ls Rs LFE<br>
Sampling rate : 48.0 kHz<br>
Frame rate : 46.875 FPS (1024 SPF)<br>
Compression mode : Lossy<br>
Stream size : 7.92 MiB (3%)<br>
Source stream size : 7.92 MiB (3%)<br>
Language : English<br>
Encoded date : 2024-01-20 05:07:28 UTC<br>
Tagged date : 2024-01-20 05:07:28 UTC</div>
</div><br>
<div class="bbCodeBlock bbCodeVfcHH HiddenContent">
<div class="attribution type">Hidden Content:</div>
<blockquote>You must reply before you can see the hidden data contained here.</blockquote>
</div>
<div class="messageTextEndMarker">&nbsp;</div>
</blockquote>
</article>]]></description>
                <author><![CDATA[DJ-RoGeRs-BS]]></author>
                </item>

                
                <item>
                <title><![CDATA[【Requests】[REQ VID] - Step Into Liquid (2003)]]></title>
                <link><![CDATA[https://sharemania.us/threads/step-into-liquid-2003.236154/]]></link>
                <description><![CDATA[<article>
<blockquote class="messageText SelectQuoteContainer ugc baseHtml">
thanks
<div class="messageTextEndMarker">&nbsp;</div>
</blockquote>
</article>]]></description>
                <author><![CDATA[gasiyav546]]></author>
                </item>

                </channel></rss>